<svg xmlns="http://www.w3.org/2000/svg" width="101" height="123" fill="none">
  <path stroke="#FF5134" stroke-width="2" d="M26.258 93.755l-12.443 1.21v-4.573l11.623-9.548-2.325-2.152V67.259l7.793-8.204 11.76-5.514h3.692l11.074-8.07 3.008 2.152 7.383-3.362 6.973 3.9 4.65-2.69 7.246-17.484 5.06-1.48 3.281 1.48L99 30.542l-.82 7.128-7.932 7.801 3.418 6.993-3.418 6.59-.958 6.321-9.297 7.801h-2.325l-4.102 3.632-8.064.807-5.059 4.438s-19.826 2.556-19.96 2.96C40.35 85.414 30.913 99 30.913 99l-4.654-5.245zm54.968-72.358l.82-3.093L83.685 14l5.88 3.768-5.88 6.725-7.11 1.344 4.65-4.44z"/>
  <path stroke="#1E2843" d="M6.954 79.669s.075-9.82 8.517-20.243c4.806-6.05 11.307-11.574 18.513-15.727"/>
  <path fill="#1E2843" d="M36.259 41.26l-7.117 5.994-.916-4.714 8.033-1.28z"/>
  <path stroke="#1E2843" stroke-dasharray="3 3" stroke-linecap="round" stroke-width="2" d="M33.123 75.54v-7.95l6.478-5.865 8.534-3.641h4.833l7.711-6.27 2.982 1.92 5.242-3.438 5.242 3.439 6.992-4.859 6.818-8.031-3.528 8.031 1.542 2.933-2.88 6.27-.616 5.766-6.17 4.248H72.5l-3.6 4.247h-7.506l-4.94 4.55"/>
</svg>
