<svg xmlns="http://www.w3.org/2000/svg" width="20" height="19" fill="none">
  <path stroke="#fff" stroke-width="2" d="M10 17.5l1.305-1.17C15.94 12.106 19 9.363 19 5.947a4.793 4.793 0 00-.348-1.895 4.84 4.84 0 00-1.068-1.61 4.913 4.913 0 00-1.619-1.074A4.965 4.965 0 0014.05 1a5.37 5.37 0 00-2.236.502c-.7.327-1.318.8-1.813 1.386a5.305 5.305 0 00-1.813-1.386A5.37 5.37 0 005.95 1a4.964 4.964 0 00-1.914.367A4.913 4.913 0 002.417 2.44a4.841 4.841 0 00-1.068 1.611 4.792 4.792 0 00-.348 1.895c0 3.416 3.06 6.16 7.694 10.385L10 17.5z"/>
</svg>
