<svg xmlns="http://www.w3.org/2000/svg" width="16" height="14" fill="none">
  <path fill="#FF5134" d="M5.181 9.9a4.534 4.534 0 01-2.435-.3 4.565 4.565 0 01-1.437-.954 4.514 4.514 0 01-.958-1.427 4.3 4.3 0 01-.35-1.736 4.366 4.366 0 01.606-2.249 4.5 4.5 0 015.641-1.881c.534.224 1.02.547 1.433.954.411.409.737.895.958 1.431a4.47 4.47 0 01.311 2.375 5.722 5.722 0 011.288-.146 5.634 5.634 0 015.24 3.516A5.663 5.663 0 015.18 9.9zm2.671-.414a2.38 2.38 0 102.381-2.345 2.37 2.37 0 00-2.38 2.343v.002zM2.746 2.458A3.6 3.6 0 001.46 3.734a3.362 3.362 0 00-.47 1.749 3.372 3.372 0 001.033 2.456A3.383 3.383 0 004.5 8.968c.262 0 .523-.027.78-.084a5.635 5.635 0 012.582-2.4 3.468 3.468 0 00-.33-2.749 3.511 3.511 0 00-4.786-1.277zM8.8 9.484a1.429 1.429 0 111.433 1.406A1.422 1.422 0 018.8 9.484zM4.243 5.721a.32.32 0 01-.092-.238V2.836a.332.332 0 11.663 0v2.313h1.51a.326.326 0 01.33.33.335.335 0 01-.1.234.314.314 0 01-.235.1H4.551a.33.33 0 01-.072 0 .323.323 0 01-.236-.092z"/>
</svg>
